<?xml version="1.0" encoding="utf-8"?>
<!-- Generator: Adobe Illustrator 24.2.1, SVG Export Plug-In . SVG Version: 6.00 Build 0)  -->
<svg version="1.0" xmlns="http://www.w3.org/2000/svg" xmlns:xlink="http://www.w3.org/1999/xlink" x="0px" y="0px"
	 viewBox="0 0 556.7 437.7" style="enable-background:new 0 0 556.7 437.7;" xml:space="preserve">
<style type="text/css">
	.st0{fill:#FFFFFF;}
</style>
<g>
	<path class="st0" d="M27,410.9h1.7c-1.7,5.9-6,8.9-12.9,8.9c-4.4,0-8.2-1.5-11.2-4.5c-3-3-4.6-7-4.6-12c0-5.1,1.6-9.2,4.9-12.4
		c3.3-3.2,7.1-4.8,11.6-4.8c2.7,0,5.2,0.6,7.4,1.8c2.3,1.2,3.4,2.6,3.4,4.3c0,0.6-0.2,1.2-0.6,1.8c-0.4,0.6-1,0.8-1.8,0.8
		c-1.7,0-2.7-1-3.1-2.9c-0.3-1.5-0.8-2.5-1.4-3.1c-0.7-0.6-1.9-0.9-3.8-0.9c-3.4,0-6,1.2-7.7,3.5c-1.7,2.4-2.6,5.9-2.6,10.7
		c0,4.9,0.9,8.7,2.8,11.5c1.8,2.8,4.6,4.2,8.4,4.2C22.5,417.8,25.7,415.5,27,410.9z"/>
	<path class="st0" d="M52.4,392.5c1.5-2.1,3.2-3.7,5.1-4.8c1.9-1.1,4-1.6,6.2-1.6c2.6,0,4.7,0.5,6.4,1.6s2.8,2.4,3.3,3.9
		c0.5,1.6,0.8,4.1,0.8,7.6v8.6c0,3.7,0.1,5.9,0.2,6.7c0.1,0.8,0.6,1.4,1.2,1.7c0.7,0.4,2,0.6,3.8,0.6v1.8H63.3v-1.8H64
		c1.9,0,3.1-0.3,3.6-0.8c0.5-0.5,0.9-1.2,1-1.9c0.1-0.7,0.1-2.8,0.1-6.3v-9.4c0-2.6-0.2-4.5-0.5-5.8c-0.3-1.2-1-2.3-2.2-3.1
		c-1.1-0.8-2.5-1.2-4.2-1.2c-2,0-3.8,0.6-5.3,1.7c-1.6,1.2-3,2.9-4.2,5.2v12.5c0,3.5,0.1,5.7,0.2,6.5c0.1,0.8,0.5,1.4,1.2,1.8
		c0.7,0.4,1.9,0.6,3.6,0.6v1.8H41.5v-1.8h0.8c1.8,0,3-0.3,3.6-0.8c0.5-0.5,0.9-1.1,1-1.9c0.1-0.7,0.1-2.8,0.1-6.3v-31.1
		c0-3.1-0.3-5.1-0.9-6c-0.6-0.8-2-1.3-4.3-1.3v-1.8c3.9,0,7.2-0.5,9.8-1.6h0.8V392.5z"/>
	<path class="st0" d="M125.4,412.8h1.4c-0.2,4.3-2.4,6.5-6.4,6.5c-1.7,0-3.1-0.5-4.1-1.4c-1-0.9-1.7-2.3-2-4.1
		c-2.5,1.8-4.9,3.2-7,4.1c-2.1,0.9-4,1.4-5.6,1.4c-2.1,0-3.9-0.6-5.4-1.8c-1.5-1.2-2.3-2.8-2.3-4.8c0-2.6,1.3-4.9,3.8-6.9
		c2.6-2,6.1-3.9,10.6-5.7l5.9-2.4v-1.5c0-2.2-0.1-3.7-0.4-4.7c-0.3-1-1-1.8-2.2-2.6c-1.2-0.8-2.7-1.1-4.6-1.1
		c-3.8,0-5.9,1.3-6.4,3.8c-0.4,2.6-1.5,3.9-3.2,3.9c-1.5,0-2.3-0.7-2.3-2.2c0-1.4,1-3,3.1-4.7c2.1-1.7,5.3-2.5,9.6-2.5
		c3.2,0,5.7,0.5,7.5,1.5c1.8,1,3,2.2,3.5,3.5c0.6,1.3,0.9,3.3,0.9,5.9v12.6c0,2.9,0.2,4.8,0.5,5.7c0.3,0.8,1,1.3,2,1.3
		C124,416.5,125,415.3,125.4,412.8z M114.4,399.5l-4.2,1.7c-6.6,2.7-9.8,6-9.8,10.1c0,1.6,0.4,2.9,1.3,3.9c0.8,1,1.9,1.5,3.3,1.5
		c1.2,0,2.6-0.4,4.2-1.2c1.6-0.8,3.3-2,5.3-3.5V399.5z"/>
	<path class="st0" d="M150.6,394c0.9-2.3,2.3-4.2,4.2-5.7c1.9-1.5,3.8-2.3,5.7-2.3c1.7,0,3,0.5,4,1.6c1,1,1.4,2.1,1.4,3.2
		c0,0.7-0.2,1.4-0.7,1.9c-0.5,0.5-1.1,0.8-1.8,0.8c-1.3,0-2.2-0.9-2.9-2.8c-0.5-1.3-1.1-1.9-2.1-1.9c-1.1,0-2.4,0.7-3.9,2.2
		c-1.5,1.5-2.5,3-2.9,4.6c-0.4,1.6-0.6,3.8-0.6,6.6v5.6c0,3.3,0,5.4,0.1,6.3c0.1,0.9,0.5,1.5,1.1,2c0.6,0.5,1.8,0.7,3.4,0.7h1.1v1.8
		H140v-1.8h0.8c1.5,0,2.6-0.2,3.3-0.6c0.6-0.4,1-1,1.2-1.8c0.1-0.8,0.2-2.9,0.2-6.6V399c0-3.4,0-5.5-0.1-6.3c-0.1-0.9-0.5-1.5-1.1-2
		c-0.6-0.5-1.8-0.7-3.4-0.7H140v-1.7c2.4-0.3,5.5-1,9.4-2.2C150.1,388.1,150.5,390.7,150.6,394z"/>
	<path class="st0" d="M188.6,386.1v21.7c0,3.3,0.1,5.4,0.2,6.3c0.1,0.9,0.5,1.5,1.1,2c0.6,0.5,1.8,0.7,3.4,0.7h0.8v1.8h-16.8v-1.8
		h1.3c1.8,0,3-0.3,3.5-0.8c0.5-0.5,0.9-1.1,1-1.9c0.1-0.7,0.1-2.8,0.1-6.3v-9.4c0-3.7-0.2-5.9-0.5-6.7c-0.3-0.8-0.8-1.3-1.4-1.5
		c-0.6-0.2-1.6-0.3-3-0.3h-1v-1.8c4.5-0.5,8-1.1,10.5-2H188.6z M181.3,370.1c0-1.1,0.4-2,1.2-2.8c0.8-0.8,1.7-1.2,2.8-1.2
		s2,0.4,2.8,1.2c0.8,0.8,1.1,1.7,1.1,2.8c0,1.1-0.4,2.1-1.1,2.9c-0.8,0.8-1.7,1.2-2.8,1.2s-2-0.4-2.8-1.2
		C181.7,372.2,181.3,371.3,181.3,370.1z"/>
	<path class="st0" d="M226.9,389.1h-9.4v18.9c0,2.9,0.1,4.8,0.4,5.8c0.3,1,0.8,1.8,1.6,2.4c0.8,0.6,1.7,0.9,2.6,0.9
		c1.8,0,3.4-1,4.8-3.1l1.2,0.7c-0.8,1.7-1.9,2.9-3.5,3.8c-1.5,0.9-3.1,1.3-4.7,1.3c-1.8,0-3.4-0.5-4.8-1.6c-1.4-1.1-2.2-2.3-2.6-3.8
		c-0.3-1.4-0.5-4-0.5-7.6v-17.7h-4.5v-1.8c2.1-0.1,3.9-0.9,5.6-2.6s2.7-4.1,3.2-7.2h1.2v9.8h9.4V389.1z"/>
	<path class="st0" d="M258.5,412.6l7.2-17.3c1-2.5,1.6-3.9,1.6-4.2c0-1.3-1.4-1.9-4.2-2v-1.8h11v1.8c-1.7,0.1-2.9,0.5-3.7,1.4
		c-0.8,0.8-1.8,2.6-2.9,5.5l-13.9,33.6c-1.3,3.2-2.5,5.4-3.5,6.5c-1,1.2-2.1,1.7-3.4,1.7c-1.7,0-2.5-0.7-2.5-2.2
		c0-1.7,1.3-3.2,4-4.4c1.5-0.7,2.6-1.3,3.1-1.8c0.5-0.5,1-1.4,1.5-2.6l3-7.4L244,394.1c-1-2.2-1.9-3.6-2.6-4.2
		c-0.7-0.6-1.9-0.9-3.5-0.9v-1.8h14.3v1.8c-2.5,0.1-3.8,0.6-3.8,1.6c0,0.4,0.5,1.6,1.5,3.7L258.5,412.6z"/>
	<path class="st0" d="M289.8,389.3c0-1.1,0.4-2,1.2-2.9c0.8-0.8,1.7-1.2,2.9-1.2c1.1,0,2.1,0.4,2.9,1.2c0.8,0.8,1.2,1.8,1.2,2.9
		c0,1.1-0.4,2.1-1.2,2.9c-0.8,0.8-1.8,1.2-2.9,1.2c-1.1,0-2.1-0.4-2.9-1.2C290.2,391.3,289.8,390.4,289.8,389.3z M289.8,415.7
		c0-1.1,0.4-2.1,1.2-2.9c0.8-0.8,1.8-1.2,2.9-1.2c1.1,0,2.1,0.4,2.9,1.2c0.8,0.8,1.2,1.8,1.2,2.9c0,1.1-0.4,2.1-1.2,2.9
		c-0.8,0.8-1.8,1.2-2.9,1.2c-1.1,0-2.1-0.4-2.9-1.2C290.2,417.7,289.8,416.8,289.8,415.7z"/>
	<path class="st0" d="M380.4,419.7h-1.7l-9.3-24.8l-9.5,24.8h-1.7l-9.5-24.8c-1.1-2.8-1.9-4.5-2.4-5.1s-1.6-0.8-3.2-0.8v-1.8h14.2
		v1.8c-1.6,0-2.7,0.1-3.3,0.4c-0.6,0.3-0.9,0.8-0.9,1.5c0,0.5,0.5,2,1.5,4.5l6.3,16.7l9.7-24.9h1.5l9.4,24.9l6.9-17.7
		c0.7-1.9,1.1-3,1.1-3.4c0-1.2-1.3-1.9-3.8-2v-1.8h10.1v1.8c-1.2,0-2.2,0.3-2.9,0.7c-0.7,0.4-1.3,1.4-1.9,3l-0.8,2.2L380.4,419.7z"
		/>
	<path class="st0" d="M440.1,412.8h1.4c-0.2,4.3-2.4,6.5-6.4,6.5c-1.7,0-3.1-0.5-4.1-1.4c-1-0.9-1.7-2.3-2-4.1
		c-2.5,1.8-4.9,3.2-7,4.1c-2.1,0.9-4,1.4-5.6,1.4c-2.1,0-3.9-0.6-5.4-1.8c-1.5-1.2-2.3-2.8-2.3-4.8c0-2.6,1.3-4.9,3.8-6.9
		c2.6-2,6.1-3.9,10.6-5.7l5.9-2.4v-1.5c0-2.2-0.1-3.7-0.4-4.7c-0.3-1-1-1.8-2.2-2.6c-1.2-0.8-2.7-1.1-4.6-1.1
		c-3.8,0-5.9,1.3-6.4,3.8c-0.4,2.6-1.5,3.9-3.2,3.9c-1.5,0-2.3-0.7-2.3-2.2c0-1.4,1-3,3.1-4.7c2.1-1.7,5.3-2.5,9.6-2.5
		c3.2,0,5.7,0.5,7.5,1.5c1.8,1,3,2.2,3.5,3.5c0.6,1.3,0.9,3.3,0.9,5.9v12.6c0,2.9,0.2,4.8,0.5,5.7c0.3,0.8,1,1.3,2,1.3
		C438.7,416.5,439.7,415.3,440.1,412.8z M429.1,399.5l-4.2,1.7c-6.6,2.7-9.8,6-9.8,10.1c0,1.6,0.4,2.9,1.3,3.9
		c0.8,1,1.9,1.5,3.3,1.5c1.2,0,2.6-0.4,4.2-1.2s3.3-2,5.3-3.5V399.5z"/>
	<path class="st0" d="M473,389.1h-9.4v18.9c0,2.9,0.1,4.8,0.4,5.8c0.3,1,0.8,1.8,1.6,2.4c0.8,0.6,1.7,0.9,2.6,0.9
		c1.8,0,3.4-1,4.8-3.1l1.2,0.7c-0.8,1.7-1.9,2.9-3.5,3.8c-1.5,0.9-3.1,1.3-4.7,1.3c-1.8,0-3.4-0.5-4.8-1.6c-1.4-1.1-2.2-2.3-2.6-3.8
		c-0.3-1.4-0.5-4-0.5-7.6v-17.7h-4.5v-1.8c2.1-0.1,3.9-0.9,5.6-2.6s2.7-4.1,3.2-7.2h1.2v9.8h9.4V389.1z"/>
	<path class="st0" d="M515.4,397.9h-21.7c-0.1,1.5-0.2,2.6-0.2,3.4c0,5.5,0.9,9.6,2.6,12.4c1.7,2.8,4.3,4.1,7.7,4.1
		c4.6,0,7.9-2.1,9.8-6.2h1.8c-0.8,2.6-2.4,4.6-4.8,6.1c-2.4,1.5-5,2.2-7.9,2.2c-2.6,0-5.1-0.7-7.5-2c-2.3-1.3-4.3-3.2-5.8-5.7
		c-1.5-2.4-2.2-5.4-2.2-8.9c0-4.9,1.4-9,4.3-12.3c2.9-3.3,6.5-4.9,10.9-4.9c4.1,0,7.2,1.2,9.5,3.7
		C514.1,392.3,515.3,395,515.4,397.9z M508.8,396.4c0.1-0.6,0.1-1.1,0.1-1.6c0-2.2-0.7-4-2-5.2c-1.3-1.2-2.9-1.8-4.8-1.8
		c-4.6,0-7.4,2.9-8.3,8.6H508.8z"/>
	<path class="st0" d="M541.4,394c0.9-2.3,2.3-4.2,4.2-5.7c1.9-1.5,3.8-2.3,5.7-2.3c1.7,0,3,0.5,4,1.6c1,1,1.4,2.1,1.4,3.2
		c0,0.7-0.2,1.4-0.7,1.9c-0.5,0.5-1.1,0.8-1.8,0.8c-1.3,0-2.2-0.9-2.9-2.8c-0.5-1.3-1.1-1.9-2.1-1.9c-1.1,0-2.4,0.7-3.9,2.2
		c-1.5,1.5-2.5,3-2.9,4.6c-0.4,1.6-0.6,3.8-0.6,6.6v5.6c0,3.3,0,5.4,0.1,6.3c0.1,0.9,0.5,1.5,1.1,2s1.8,0.7,3.4,0.7h1.1v1.8h-16.6
		v-1.8h0.8c1.5,0,2.6-0.2,3.3-0.6c0.6-0.4,1-1,1.2-1.8c0.1-0.8,0.2-2.9,0.2-6.6V399c0-3.4,0-5.5-0.1-6.3c-0.1-0.9-0.5-1.5-1.1-2
		c-0.6-0.5-1.8-0.7-3.4-0.7h-0.8v-1.7c2.4-0.3,5.5-1,9.4-2.2C540.9,388.1,541.3,390.7,541.4,394z"/>
</g>
<g>
	<path class="st0" d="M394.8,40c-2.9-5.1-6.2-11-9-16.1c-1.5-2.8-1.6-4.9,1.6-6.3c3.9-1.6,4.6-4.1,2.4-7.7c-2-3.3-4.5-4.6-7.9-2
		c-2.7,2-4.9,1.8-7.1-1c-4-4.8-9.5-6.8-15.6-6.6c-7.3,0.2-14.9-1.9-21.5,3.5c-1.2,1-3.5,0.7-5.3,0.7c-18.6,0-37.1,0.2-55.7-0.1
		c-12-0.2-24-1.7-36-2c-3.1-0.1-6.7,1.4-9.3,3.2c-2.7,1.9-4.4,5.2-6.8,7.7c-2.9,3-6.2,5.8-9.3,8.6c-0.7-0.4-1.5-0.8-2.2-1.2
		c0.4-3.8,0.8-7.7,1.3-13c-2.8,2.3-5.1,4.1-7.7,6.2c-1.6-2.7-2.9-6-5.1-8.4c-1.6-1.7-5.2-3.8-6.7-3.2c-8.3,3.9-16.3,8.5-24.2,13.3
		c-1.2,0.7-2,4-1.5,5.6c2.1,6.5,4.8,12.9,7.6,20.1c-13.3,4.6-12.1,15.4-12.1,26.5v232.5c0,16.7,7,23.5,24,23.5
		c62.6,0.2,125.1,0.1,187.7,0c11.7,0,21.7-8,21.7-18l1-243.3C399.2,54.3,399,47.4,394.8,40z M253.7,30.9c0-4.4,3.6-8,8-8h63.4
		c4.4,0,8,3.6,8,8v2.6c0,4.4-3.6,8-8,8h-63.4c-4.4,0-8-3.6-8-8V30.9z M358.7,271.1c-1.4,0.8-3,1.2-4.5,1.2c-3.1,0-6.2-1.6-7.8-4.5
		l-31-54.1h-66.8l-31,54.1c-1.7,2.9-4.7,4.5-7.8,4.5c-1.5,0-3.1-0.4-4.5-1.2c-4.3-2.5-5.8-8-3.3-12.3l30.3-52.8v-55l-29.5-51.4
		c-2.5-4.3-1-9.8,3.3-12.3c4.3-2.5,9.8-1,12.3,3.3l28.1,49h71.1l28.1-49c2.5-4.3,8-5.8,12.3-3.3c4.3,2.5,5.8,8,3.3,12.3L331.8,151
		v55l30.3,52.8C364.5,263.1,363.1,268.6,358.7,271.1z"/>
	<path class="st0" d="M304.8,157.6h-45.5c-4.9,0-9,4.1-9,9v20c0,4.9,4.1,9,9,9h45.5c4.9,0,9-4.1,9-9v-20
		C313.8,161.6,309.7,157.6,304.8,157.6z"/>
</g>
</svg>
