<?xml version="1.0" encoding="utf-8"?>
<!-- Generator: Adobe Illustrator 24.2.1, SVG Export Plug-In . SVG Version: 6.00 Build 0)  -->
<svg version="1.0" id="Layer_1" xmlns="http://www.w3.org/2000/svg" xmlns:xlink="http://www.w3.org/1999/xlink" x="0px" y="0px"
	 viewBox="0 0 198 70" style="enable-background:new 0 0 198 70;" xml:space="preserve">
<style type="text/css">
	.st0{fill-rule:evenodd;clip-rule:evenodd;fill:#FFFFFF;}
	.st1{filter:url(#Adobe_OpacityMaskFilter);}
	.st2{mask:url(#mask-2_1_);fill-rule:evenodd;clip-rule:evenodd;fill:#FFFFFF;}
	.st3{filter:url(#Adobe_OpacityMaskFilter_1_);}
	.st4{mask:url(#mask-4_1_);fill-rule:evenodd;clip-rule:evenodd;fill:#FFFFFF;}
	.st5{filter:url(#Adobe_OpacityMaskFilter_2_);}
	.st6{mask:url(#mask-4_2_);fill-rule:evenodd;clip-rule:evenodd;fill:#FFFFFF;}
	.st7{filter:url(#Adobe_OpacityMaskFilter_3_);}
	.st8{mask:url(#mask-4_3_);fill-rule:evenodd;clip-rule:evenodd;fill:#FFFFFF;}
	.st9{filter:url(#Adobe_OpacityMaskFilter_4_);}
	.st10{mask:url(#mask-4_4_);fill-rule:evenodd;clip-rule:evenodd;fill:#FFFFFF;}
	.st11{filter:url(#Adobe_OpacityMaskFilter_5_);}
	.st12{mask:url(#mask-4_5_);fill-rule:evenodd;clip-rule:evenodd;fill:#FFFFFF;}
	.st13{filter:url(#Adobe_OpacityMaskFilter_6_);}
	.st14{mask:url(#mask-4_6_);fill-rule:evenodd;clip-rule:evenodd;fill:#FFFFFF;}
	.st15{filter:url(#Adobe_OpacityMaskFilter_7_);}
	.st16{mask:url(#mask-4_7_);fill-rule:evenodd;clip-rule:evenodd;fill:#FFFFFF;}
	.st17{filter:url(#Adobe_OpacityMaskFilter_8_);}
	.st18{mask:url(#mask-4_8_);fill-rule:evenodd;clip-rule:evenodd;fill:#FFFFFF;}
	.st19{filter:url(#Adobe_OpacityMaskFilter_9_);}
	.st20{mask:url(#mask-4_9_);fill-rule:evenodd;clip-rule:evenodd;fill:#FFFFFF;}
	.st21{filter:url(#Adobe_OpacityMaskFilter_10_);}
	.st22{mask:url(#mask-4_10_);fill-rule:evenodd;clip-rule:evenodd;fill:#FFFFFF;}
	.st23{filter:url(#Adobe_OpacityMaskFilter_11_);}
	.st24{mask:url(#mask-4_11_);fill-rule:evenodd;clip-rule:evenodd;fill:#FFFFFF;}
	.st25{filter:url(#Adobe_OpacityMaskFilter_12_);}
	.st26{mask:url(#mask-4_12_);fill-rule:evenodd;clip-rule:evenodd;fill:#FFFFFF;}
	.st27{filter:url(#Adobe_OpacityMaskFilter_13_);}
	.st28{mask:url(#mask-4_13_);fill-rule:evenodd;clip-rule:evenodd;fill:#FFFFFF;}
	.st29{filter:url(#Adobe_OpacityMaskFilter_14_);}
	.st30{mask:url(#mask-4_14_);fill-rule:evenodd;clip-rule:evenodd;fill:#FFFFFF;}
	.st31{filter:url(#Adobe_OpacityMaskFilter_15_);}
	.st32{mask:url(#mask-4_15_);fill-rule:evenodd;clip-rule:evenodd;fill:#FFFFFF;}
	.st33{filter:url(#Adobe_OpacityMaskFilter_16_);}
	.st34{mask:url(#mask-4_16_);fill-rule:evenodd;clip-rule:evenodd;fill:#FFFFFF;}
	.st35{filter:url(#Adobe_OpacityMaskFilter_17_);}
	.st36{mask:url(#mask-4_17_);fill-rule:evenodd;clip-rule:evenodd;fill:#FFFFFF;}
	.st37{filter:url(#Adobe_OpacityMaskFilter_18_);}
	.st38{mask:url(#mask-4_18_);fill-rule:evenodd;clip-rule:evenodd;fill:#FFFFFF;}
	.st39{filter:url(#Adobe_OpacityMaskFilter_19_);}
	.st40{mask:url(#mask-4_19_);fill-rule:evenodd;clip-rule:evenodd;fill:#FFFFFF;}
</style>
<desc>Created with Sketch.</desc>
<path id="Fill-1" class="st0" d="M70.1,47c-0.1-0.7-0.4-1.5-0.7-1.8c-1.1,1.4-3.1,2.4-4.8,2.4c-4.6,0-8.3-3.9-8.3-8.6
	c0-4.7,3.7-8.5,8.3-8.5c1.8,0,3.7,1,4.8,2.4c0.3-0.3,0.5-1.2,0.7-1.8h0.7v6.3h-0.7c-0.7-3.4-2.6-5.6-5.5-5.6c-4.1,0-5.3,4.1-5.3,7.2
	c0,3.1,1.2,7.2,5.3,7.2c2.8,0,4.8-2.2,5.5-5.6h0.7V47H70.1L70.1,47z"/>
<path id="Fill-3" class="st0" d="M88.5,37.9v-1.8c0-3.7-0.4-4.3-2.9-4.3v-0.7H94v0.7c-2.4,0-2.9,0.6-2.9,4.3V42
	c0,3.7,0.5,4.3,2.9,4.3V47h-8.4v-0.7c2.5,0,2.9-0.6,2.9-4.3v-2.7h-8.3V42c0,3.7,0.4,4.3,2.9,4.3V47h-8.4v-0.7c2.5,0,2.9-0.6,2.9-4.3
	v-5.9c0-3.7-0.4-4.3-2.9-4.3v-0.7h8.4v0.7c-2.5,0-2.9,0.6-2.9,4.3v1.8H88.5z"/>
<path id="Fill-5" class="st0" d="M97.2,47v-0.7c2.5,0,2.9-0.6,2.9-4.3v-5.9c0-3.7-0.4-4.3-2.9-4.3v-0.7h8.4v0.7
	c-2.5,0-2.9,0.6-2.9,4.3V42c0,3.7,0.4,4.3,2.9,4.3V47H97.2z"/>
<path id="Fill-7" class="st0" d="M108.9,31.9v-0.7h8.4v0.7c-2.5,0-2.9,0.6-2.9,4.3v5.3c0,3.7,0.4,4.3,2.9,4.3h1.3
	c3.4,0,3.8-0.6,4.3-2.3l0.2-0.7h0.8l-0.3,4.4h-14.6v-0.7c2.5,0,2.9-0.6,2.9-4.3v-5.9C111.8,32.5,111.3,31.9,108.9,31.9"/>
<path id="Fill-9" class="st0" d="M124.9,46.3c2.5,0,2.9-0.6,2.9-4.3v-5.9c0-3.7-0.4-4.3-2.9-4.3v-0.7h7.8c6.2,0,9,3.6,9,7.9
	c0,4.4-2.7,8-9,8h-7.8V46.3z M132.8,32.5h-2.4v10.4c0,2.4,0.3,2.8,2.1,2.8h0.3c4.8,0,5.8-3.7,5.8-6.6
	C138.6,36.2,137.7,32.5,132.8,32.5L132.8,32.5z"/>
<path id="Fill-11" class="st0" d="M154.9,42.9c1.5,1.7,3.2,3.2,4.9,3.4V47h-4.7l-5-6.8h-1V42c0,3.7,0.4,4.3,2.9,4.3V47h-8.4v-0.7
	c2.5,0,2.9-0.6,2.9-4.3v-5.9c0-3.7-0.4-4.3-2.9-4.3v-0.7h7.6c3.8,0,5.9,1.9,5.9,4.5c0,2.2-1.7,4.1-4.4,4.4L154.9,42.9z M151.2,32.5
	h-2.1v6.4h2.1c2.1,0,3-1.4,3-3.2C154.2,33.9,153.2,32.5,151.2,32.5L151.2,32.5z"/>
<path id="Fill-13" class="st0" d="M174.3,43.3l0.2-0.7h0.7l-0.3,4.4h-13.7v-0.7c2.5,0,2.9-0.6,2.9-4.3v-5.9c0-3.7-0.4-4.3-2.9-4.3
	v-0.7h8.1h4.7l0.3,4.4h-0.8l-0.2-0.7c-0.4-1.7-0.9-2.3-4.2-2.3h-2.5v5.5h0.2c3.7,0,4-0.4,4-2.9h0.7v7.2h-0.7c0-2.4-0.3-2.9-4-2.9
	h-0.2v2.1c0,3.7,0.4,4.3,2.9,4.3h0.4C173.4,45.7,173.9,45,174.3,43.3"/>
<g id="Group-17" transform="translate(178.101266, 30.991570)">
	<g id="Clip-16">
	</g>
	<defs>
		<filter id="Adobe_OpacityMaskFilter" filterUnits="userSpaceOnUse" x="0.4" y="0.1" width="18.5" height="16.5">
			<feColorMatrix  type="matrix" values="1 0 0 0 0  0 1 0 0 0  0 0 1 0 0  0 0 0 1 0"/>
		</filter>
	</defs>
	<mask maskUnits="userSpaceOnUse" x="0.4" y="0.1" width="18.5" height="16.5" id="mask-2_1_">
		<g class="st1">
			<polygon id="path-1_1_" class="st0" points="18.9,16.6 18.9,0.1 0.4,0.1 0.4,16.6 			"/>
		</g>
	</mask>
	<path id="Fill-15" class="st2" d="M0.4,0.9V0.1h4.5l9.8,11.6V5.1c0-3.7-0.4-4.3-2.9-4.3V0.1h7.2v0.7c-2.5,0-2.9,0.6-2.9,4.3v11.5
		h-0.7L4.6,3.8V11c0,3.7,0.4,4.3,2.9,4.3V16H0.4v-0.7c2.5,0,2.9-0.6,2.9-4.3V5.1C3.3,1.5,2.8,0.9,0.4,0.9"/>
</g>
<g id="Clip-19">
</g>
<defs>
	<filter id="Adobe_OpacityMaskFilter_1_" filterUnits="userSpaceOnUse" x="84.4" y="53.4" width="0.6" height="4.7">
		<feColorMatrix  type="matrix" values="1 0 0 0 0  0 1 0 0 0  0 0 1 0 0  0 0 0 1 0"/>
	</filter>
</defs>
<mask maskUnits="userSpaceOnUse" x="84.4" y="53.4" width="0.6" height="4.7" id="mask-4_1_">
	<g class="st3">
		<polygon id="path-3_1_" class="st0" points="0,70 197,70 197,0 0,0 		"/>
	</g>
</mask>
<polygon id="Fill-18" class="st4" points="84.4,58.1 85,58.1 85,53.4 84.4,53.4 "/>
<defs>
	<filter id="Adobe_OpacityMaskFilter_2_" filterUnits="userSpaceOnUse" x="89" y="53.4" width="3.9" height="4.7">
		<feColorMatrix  type="matrix" values="1 0 0 0 0  0 1 0 0 0  0 0 1 0 0  0 0 0 1 0"/>
	</filter>
</defs>
<mask maskUnits="userSpaceOnUse" x="89" y="53.4" width="3.9" height="4.7" id="mask-4_2_">
	<g class="st5">
		<polygon id="path-3_2_" class="st0" points="0,70 197,70 197,0 0,0 		"/>
	</g>
</mask>
<polygon id="Fill-20" class="st6" points="89,53.4 89.3,53.4 92.3,56.9 92.3,53.4 92.9,53.4 92.9,58.1 92.6,58.1 89.6,54.6 
	89.6,58.1 89,58.1 "/>
<defs>
	<filter id="Adobe_OpacityMaskFilter_3_" filterUnits="userSpaceOnUse" x="96.5" y="53.3" width="4.6" height="4.9">
		<feColorMatrix  type="matrix" values="1 0 0 0 0  0 1 0 0 0  0 0 1 0 0  0 0 0 1 0"/>
	</filter>
</defs>
<mask maskUnits="userSpaceOnUse" x="96.5" y="53.3" width="4.6" height="4.9" id="mask-4_3_">
	<g class="st7">
		<polygon id="path-3_3_" class="st0" points="0,70 197,70 197,0 0,0 		"/>
	</g>
</mask>
<path id="Fill-21" class="st8" d="M101.1,56.9c-0.4,0.8-1.2,1.3-2.2,1.3c-1.4,0-2.4-1-2.4-2.4c0-1.4,1-2.5,2.4-2.5
	c0.9,0,1.6,0.4,2,1.1l-0.5,0.3c-0.3-0.6-0.9-0.9-1.6-0.9c-1,0-1.8,0.8-1.8,1.9c0,1.1,0.8,1.9,1.8,1.9c0.7,0,1.3-0.4,1.7-1.1
	L101.1,56.9z"/>
<defs>
	<filter id="Adobe_OpacityMaskFilter_4_" filterUnits="userSpaceOnUse" x="104.4" y="53.3" width="4.9" height="4.9">
		<feColorMatrix  type="matrix" values="1 0 0 0 0  0 1 0 0 0  0 0 1 0 0  0 0 0 1 0"/>
	</filter>
</defs>
<mask maskUnits="userSpaceOnUse" x="104.4" y="53.3" width="4.9" height="4.9" id="mask-4_4_">
	<g class="st9">
		<polygon id="path-3_4_" class="st0" points="0,70 197,70 197,0 0,0 		"/>
	</g>
</mask>
<path id="Fill-22" class="st10" d="M104.4,55.7c0-1.4,1-2.5,2.4-2.5c1.4,0,2.4,1,2.4,2.5c0,1.4-1,2.4-2.4,2.4
	C105.4,58.2,104.4,57.2,104.4,55.7 M108.6,55.7c0-1.1-0.8-1.9-1.8-1.9c-1,0-1.8,0.8-1.8,1.9c0,1.1,0.8,1.9,1.8,1.9
	C107.9,57.6,108.6,56.8,108.6,55.7"/>
<defs>
	<filter id="Adobe_OpacityMaskFilter_5_" filterUnits="userSpaceOnUse" x="112.8" y="53.4" width="4.2" height="4.7">
		<feColorMatrix  type="matrix" values="1 0 0 0 0  0 1 0 0 0  0 0 1 0 0  0 0 0 1 0"/>
	</filter>
</defs>
<mask maskUnits="userSpaceOnUse" x="112.8" y="53.4" width="4.2" height="4.7" id="mask-4_5_">
	<g class="st11">
		<polygon id="path-3_5_" class="st0" points="0,70 197,70 197,0 0,0 		"/>
	</g>
</mask>
<path id="Fill-23" class="st12" d="M112.8,53.4h2.7c0.9,0,1.5,0.5,1.5,1.3c0,0.7-0.4,1.2-1.1,1.3l1.2,2.1h-0.6l-1.2-2h-1.8v2h-0.6
	V53.4z M115.5,55.5c0.6,0,0.9-0.3,0.9-0.8c0-0.5-0.3-0.8-0.9-0.8h-2.1v1.5H115.5z"/>
<defs>
	<filter id="Adobe_OpacityMaskFilter_6_" filterUnits="userSpaceOnUse" x="120.6" y="53.4" width="4.1" height="4.7">
		<feColorMatrix  type="matrix" values="1 0 0 0 0  0 1 0 0 0  0 0 1 0 0  0 0 0 1 0"/>
	</filter>
</defs>
<mask maskUnits="userSpaceOnUse" x="120.6" y="53.4" width="4.1" height="4.7" id="mask-4_6_">
	<g class="st13">
		<polygon id="path-3_6_" class="st0" points="0,70 197,70 197,0 0,0 		"/>
	</g>
</mask>
<path id="Fill-24" class="st14" d="M120.6,53.4h2.7c0.9,0,1.5,0.5,1.5,1.3c0,0.8-0.5,1.4-1.4,1.4h-2.2v2h-0.6V53.4z M123.3,55.5
	c0.6,0,0.9-0.3,0.9-0.8c0-0.5-0.3-0.8-0.9-0.8h-2.1v1.5H123.3z"/>
<defs>
	<filter id="Adobe_OpacityMaskFilter_7_" filterUnits="userSpaceOnUse" x="128" y="53.3" width="4.8" height="4.9">
		<feColorMatrix  type="matrix" values="1 0 0 0 0  0 1 0 0 0  0 0 1 0 0  0 0 0 1 0"/>
	</filter>
</defs>
<mask maskUnits="userSpaceOnUse" x="128" y="53.3" width="4.8" height="4.9" id="mask-4_7_">
	<g class="st15">
		<polygon id="path-3_7_" class="st0" points="0,70 197,70 197,0 0,0 		"/>
	</g>
</mask>
<path id="Fill-25" class="st16" d="M128,55.7c0-1.4,1-2.5,2.4-2.5c1.4,0,2.4,1,2.4,2.5c0,1.4-1,2.4-2.4,2.4
	C129,58.2,128,57.2,128,55.7 M132.2,55.7c0-1.1-0.8-1.9-1.8-1.9c-1,0-1.8,0.8-1.8,1.9c0,1.1,0.8,1.9,1.8,1.9
	C131.4,57.6,132.2,56.8,132.2,55.7"/>
<defs>
	<filter id="Adobe_OpacityMaskFilter_8_" filterUnits="userSpaceOnUse" x="136.4" y="53.4" width="4.2" height="4.7">
		<feColorMatrix  type="matrix" values="1 0 0 0 0  0 1 0 0 0  0 0 1 0 0  0 0 0 1 0"/>
	</filter>
</defs>
<mask maskUnits="userSpaceOnUse" x="136.4" y="53.4" width="4.2" height="4.7" id="mask-4_8_">
	<g class="st17">
		<polygon id="path-3_8_" class="st0" points="0,70 197,70 197,0 0,0 		"/>
	</g>
</mask>
<path id="Fill-26" class="st18" d="M136.4,53.4h2.7c0.9,0,1.5,0.5,1.5,1.3c0,0.7-0.4,1.2-1.1,1.3l1.2,2.1H140l-1.2-2H137v2h-0.6
	V53.4z M139,55.5c0.6,0,0.9-0.3,0.9-0.8c0-0.5-0.3-0.8-0.9-0.8H137v1.5H139z"/>
<defs>
	<filter id="Adobe_OpacityMaskFilter_9_" filterUnits="userSpaceOnUse" x="143.2" y="53.4" width="5.1" height="4.7">
		<feColorMatrix  type="matrix" values="1 0 0 0 0  0 1 0 0 0  0 0 1 0 0  0 0 0 1 0"/>
	</filter>
</defs>
<mask maskUnits="userSpaceOnUse" x="143.2" y="53.4" width="5.1" height="4.7" id="mask-4_9_">
	<g class="st19">
		<polygon id="path-3_9_" class="st0" points="0,70 197,70 197,0 0,0 		"/>
	</g>
</mask>
<path id="Fill-27" class="st20" d="M145.5,53.4h0.5l2.3,4.7h-0.6l-0.6-1.3h-2.6l-0.6,1.3h-0.6L145.5,53.4z M146.7,56.3l-1-2.1
	l-1,2.1H146.7z"/>
<defs>
	<filter id="Adobe_OpacityMaskFilter_10_" filterUnits="userSpaceOnUse" x="149.9" y="53.4" width="4.5" height="4.7">
		<feColorMatrix  type="matrix" values="1 0 0 0 0  0 1 0 0 0  0 0 1 0 0  0 0 0 1 0"/>
	</filter>
</defs>
<mask maskUnits="userSpaceOnUse" x="149.9" y="53.4" width="4.5" height="4.7" id="mask-4_10_">
	<g class="st21">
		<polygon id="path-3_10_" class="st0" points="0,70 197,70 197,0 0,0 		"/>
	</g>
</mask>
<polygon id="Fill-28" class="st22" points="151.9,53.9 149.9,53.9 149.9,53.4 154.5,53.4 154.5,53.9 152.5,53.9 152.5,58.1 
	151.9,58.1 "/>
<defs>
	<filter id="Adobe_OpacityMaskFilter_11_" filterUnits="userSpaceOnUse" x="157.3" y="53.4" width="3.9" height="4.7">
		<feColorMatrix  type="matrix" values="1 0 0 0 0  0 1 0 0 0  0 0 1 0 0  0 0 0 1 0"/>
	</filter>
</defs>
<mask maskUnits="userSpaceOnUse" x="157.3" y="53.4" width="3.9" height="4.7" id="mask-4_11_">
	<g class="st23">
		<polygon id="path-3_11_" class="st0" points="0,70 197,70 197,0 0,0 		"/>
	</g>
</mask>
<polygon id="Fill-29" class="st24" points="157.3,53.4 161,53.4 161,53.9 157.9,53.9 157.9,55.3 159.8,55.3 159.8,55.8 157.9,55.8 
	157.9,57.5 161.2,57.5 161.2,58.1 157.3,58.1 "/>
<defs>
	<filter id="Adobe_OpacityMaskFilter_12_" filterUnits="userSpaceOnUse" x="164.7" y="53.4" width="4.5" height="4.7">
		<feColorMatrix  type="matrix" values="1 0 0 0 0  0 1 0 0 0  0 0 1 0 0  0 0 0 1 0"/>
	</filter>
</defs>
<mask maskUnits="userSpaceOnUse" x="164.7" y="53.4" width="4.5" height="4.7" id="mask-4_12_">
	<g class="st25">
		<polygon id="path-3_12_" class="st0" points="0,70 197,70 197,0 0,0 		"/>
	</g>
</mask>
<path id="Fill-30" class="st26" d="M169.1,55.7c0,1.3-0.9,2.3-2.5,2.3h-2v-4.7h2C168.2,53.4,169.1,54.4,169.1,55.7L169.1,55.7z
	 M165.2,53.9v3.6h1.4c1.2,0,1.9-0.7,1.9-1.8c0-1-0.7-1.8-1.9-1.8H165.2z"/>
<defs>
	<filter id="Adobe_OpacityMaskFilter_13_" filterUnits="userSpaceOnUse" x="6.7" y="0" width="21.6" height="20.6">
		<feColorMatrix  type="matrix" values="1 0 0 0 0  0 1 0 0 0  0 0 1 0 0  0 0 0 1 0"/>
	</filter>
</defs>
<mask maskUnits="userSpaceOnUse" x="6.7" y="0" width="21.6" height="20.6" id="mask-4_13_">
	<g class="st27">
		<polygon id="path-3_13_" class="st0" points="0,70 197,70 197,0 0,0 		"/>
	</g>
</mask>
<path id="Fill-31" class="st28" d="M6.7,10.3C6.7,4.6,11.6,0,17.5,0c6,0,10.8,4.6,10.8,10.3c0,5.7-4.8,10.3-10.8,10.3
	C11.6,20.6,6.7,16,6.7,10.3"/>
<defs>
	<filter id="Adobe_OpacityMaskFilter_14_" filterUnits="userSpaceOnUse" x="0" y="22.4" width="30.8" height="47.6">
		<feColorMatrix  type="matrix" values="1 0 0 0 0  0 1 0 0 0  0 0 1 0 0  0 0 0 1 0"/>
	</filter>
</defs>
<mask maskUnits="userSpaceOnUse" x="0" y="22.4" width="30.8" height="47.6" id="mask-4_14_">
	<g class="st29">
		<polygon id="path-3_14_" class="st0" points="0,70 197,70 197,0 0,0 		"/>
	</g>
</mask>
<path id="Fill-32" class="st30" d="M28.3,29.5c-4.2-2.4-8-5.3-12.8-6.5c-1.8-0.4-3.2-0.7-5.1-0.6c-0.4,0-0.8,0-1.1,0.1
	c0,0-1.2,0.2-0.5,0c-0.7,0.1-1.3,0.2-2,0.4c-0.6,0.2-1.3,0.4-1.9,0.6C5.2,23.4,4,24,3.8,24.1C3,24.5,2.2,25,1.5,25.5l-0.1,0.1
	c-0.1,0.1-0.2,0.2-0.4,0.3c-0.2,0.2-0.4,0.4-0.6,0.5c-0.2,0.2-0.3,0.3-0.5,0.5l0,0c0.1,1.3,0.2,2.7,0.4,4c0.4,4,0.7,8,1.1,11.9
	c0.1,0.9,0.2,1.7,0.2,2.6c0.1,0.6,0.1,1,0.4,1.6c0.3,0.5,0.7,0.9,1.2,1.1c0.2,0.1,0.4,0.2,0.6,0.3c0.8,0.4,1.6,0.8,2.4,1.2
	c1.3,0.7,2.6,1.3,4,2c0.4,2.5,0.7,4.9,1.1,7.4c0.4,2.9,0.8,5.7,1.2,8.6c0.1,0.7,0.8,1.5,1.4,1.8c0.6,0.4,1.6,0.6,2.4,0.3
	c3-1.2,6-2.4,9-3.6c1.1-0.4,2.2-0.9,3.3-1.3c0.5-0.1,1-0.4,1.4-0.8c0.6-0.6,0.9-1.4,0.9-2.2V30.7C30,30.4,29.1,29.9,28.3,29.5"/>
<defs>
	<filter id="Adobe_OpacityMaskFilter_15_" filterUnits="userSpaceOnUse" x="31" y="13.9" width="16.9" height="16.2">
		<feColorMatrix  type="matrix" values="1 0 0 0 0  0 1 0 0 0  0 0 1 0 0  0 0 0 1 0"/>
	</filter>
</defs>
<mask maskUnits="userSpaceOnUse" x="31" y="13.9" width="16.9" height="16.2" id="mask-4_15_">
	<g class="st31">
		<polygon id="path-3_15_" class="st0" points="0,70 197,70 197,0 0,0 		"/>
	</g>
</mask>
<path id="Fill-33" class="st32" d="M47.9,22c0,4.5-3.8,8.1-8.5,8.1c-4.7,0-8.5-3.6-8.5-8.1c0-4.5,3.8-8.1,8.5-8.1
	C44.1,13.9,47.9,17.5,47.9,22"/>
<defs>
	<filter id="Adobe_OpacityMaskFilter_16_" filterUnits="userSpaceOnUse" x="31" y="13.9" width="16.9" height="16.2">
		<feColorMatrix  type="matrix" values="1 0 0 0 0  0 1 0 0 0  0 0 1 0 0  0 0 0 1 0"/>
	</filter>
</defs>
<mask maskUnits="userSpaceOnUse" x="31" y="13.9" width="16.9" height="16.2" id="mask-4_16_">
	<g class="st33">
		<polygon id="path-3_16_" class="st0" points="0,70 197,70 197,0 0,0 		"/>
	</g>
</mask>
<path id="Fill-34" class="st34" d="M39.4,13.9c-4.7,0-8.5,3.6-8.5,8.1c0,4.5,3.8,8.1,8.5,8.1c4.7,0,8.5-3.6,8.5-8.1
	C47.9,17.5,44.1,13.9,39.4,13.9"/>
<defs>
	<filter id="Adobe_OpacityMaskFilter_17_" filterUnits="userSpaceOnUse" x="18" y="28.8" width="33.7" height="35.9">
		<feColorMatrix  type="matrix" values="1 0 0 0 0  0 1 0 0 0  0 0 1 0 0  0 0 0 1 0"/>
	</filter>
</defs>
<mask maskUnits="userSpaceOnUse" x="18" y="28.8" width="33.7" height="35.9" id="mask-4_17_">
	<g class="st35">
		<polygon id="path-3_17_" class="st0" points="0,70 197,70 197,0 0,0 		"/>
	</g>
</mask>
<path id="Fill-35" class="st36" d="M51.6,32.6L51.6,32.6c0-0.1,0-0.1,0-0.2c-0.2-0.6-0.6-1.1-1.1-1.5l-0.1,0
	c-0.4,0.3-0.9,0.5-1.3,0.7c-6.9,3.1-14.3,1.4-20.7-2.2c-0.4-0.2-0.8-0.5-1.2-0.7c-0.5,1.3-0.9,2.6-1.4,3.9
	c-1.4,3.9-2.8,7.9-4.1,11.8c-1.1,3.1-2.1,6.1-3.2,9.2c-0.1,0.3-0.2,0.7-0.4,1c-0.3,0.8,0,1.8,0.6,2.4c2.4,2.1,4.9,4.2,7.3,6.4
	c0.2,0.2,0.4,0.4,0.6,0.5c0.5,0.4,1,0.7,1.7,0.7c0.8,0,1.7-0.5,2.1-1.2c1.5-2.8,2.9-5.7,4.4-8.5c0.5-0.9,0.9-1.8,1.4-2.7
	c1-0.1,2-0.3,3.1-0.4c0.8-0.1,1.6-0.2,2.3-0.3c0.1,0,0.1,0,0.2,0c0.2,0,0.5,0,0.7-0.1c0.6-0.2,1.2-0.6,1.5-1.1
	c0-0.1,0.1-0.2,0.1-0.2c1.4-3.1,2.9-6.2,4.3-9.4c1-2.1,2-4.3,2.9-6.4l0-0.1c0.1-0.2,0.2-0.3,0.2-0.5C51.6,33.4,51.7,33,51.6,32.6
	L51.6,32.6z"/>
<defs>
	<filter id="Adobe_OpacityMaskFilter_18_" filterUnits="userSpaceOnUse" x="18" y="28.8" width="12.9" height="35.9">
		<feColorMatrix  type="matrix" values="1 0 0 0 0  0 1 0 0 0  0 0 1 0 0  0 0 0 1 0"/>
	</filter>
</defs>
<mask maskUnits="userSpaceOnUse" x="18" y="28.8" width="12.9" height="35.9" id="mask-4_18_">
	<g class="st37">
		<polygon id="path-3_18_" class="st0" points="0,70 197,70 197,0 0,0 		"/>
	</g>
</mask>
<path id="Fill-36" class="st38" d="M27.1,28.8l-1.4,3.9c-1.4,3.9-2.8,7.9-4.1,11.8c-1.1,3.1-2.1,6.1-3.2,9.2c-0.1,0.3-0.2,0.7-0.4,1
	c-0.3,0.8,0,1.8,0.6,2.4c2.4,2.1,4.9,4.2,7.3,6.4c0.2,0.2,0.4,0.4,0.6,0.5c0.5,0.4,1,0.7,1.7,0.7c0.7,0,1.5-0.3,1.9-0.9l0.1-0.1
	l0.1-0.1l0.1-0.1l0-0.1c0.2-0.4,0.3-0.9,0.3-1.4V30.7c-0.4-0.2-0.8-0.4-1.3-0.6l0,0c-0.4-0.2-0.8-0.4-1.2-0.7
	C28,29.3,27.6,29.1,27.1,28.8L27.1,28.8z"/>
<defs>
	<filter id="Adobe_OpacityMaskFilter_19_" filterUnits="userSpaceOnUse" x="18" y="28.8" width="12.9" height="35.9">
		<feColorMatrix  type="matrix" values="1 0 0 0 0  0 1 0 0 0  0 0 1 0 0  0 0 0 1 0"/>
	</filter>
</defs>
<mask maskUnits="userSpaceOnUse" x="18" y="28.8" width="12.9" height="35.9" id="mask-4_19_">
	<g class="st39">
		<polygon id="path-3_19_" class="st0" points="0,70 197,70 197,0 0,0 		"/>
	</g>
</mask>
<path id="Fill-37" class="st40" d="M27.1,28.8l-1.4,3.9c-1.4,3.9-2.8,7.9-4.1,11.8c-1.1,3.1-2.1,6.1-3.2,9.2c-0.1,0.3-0.2,0.7-0.4,1
	C18,54.9,18,55.1,18,55.3c0,0.6,0.3,1.3,0.7,1.7c2.4,2.1,4.9,4.2,7.3,6.4c0.2,0.2,0.4,0.4,0.6,0.5c0.5,0.4,1,0.7,1.7,0.7
	c0.7,0,1.5-0.3,1.9-0.9l0.1-0.1l0.1-0.1l0.1-0.1l0-0.1c0.2-0.4,0.3-0.9,0.3-1.4V30.7c-0.4-0.2-0.8-0.4-1.3-0.6l0,0
	c-0.4-0.2-0.8-0.4-1.2-0.7C28,29.3,27.6,29.1,27.1,28.8L27.1,28.8z"/>
</svg>
