<?xml version="1.0" encoding="utf-8"?>
<!-- Generator: Adobe Illustrator 24.2.1, SVG Export Plug-In . SVG Version: 6.00 Build 0)  -->
<svg version="1.0" id="Layer_1" xmlns="http://www.w3.org/2000/svg" xmlns:xlink="http://www.w3.org/1999/xlink" x="0px" y="0px"
	 viewBox="0 0 210 91" style="enable-background:new 0 0 210 91;" xml:space="preserve">
<path d="M21.7,6.4H5V85h16.7V6.4z M65.6,85h16.7V29.9H65.6V85z M108.2,85h19.2l19.2-55.1h-16.6c0,0-9,30-11.7,39.5h-0.2
	c-2.7-9.5-11.8-39.5-11.8-39.5H88.8L108.2,85z M205,29.9h-16.1v7.5c-2.8-5.8-9.3-9-16.8-9c-13.7,0-24.4,11.1-24.4,29
	c0,18.1,10.4,29,23.6,29c9.3,0,14.8-4.5,17.6-9.5v8H205V29.9z M188.4,58.8c0,10.2-6.3,14.9-12.5,14.9c-6.8,0-11.2-6.9-11.2-16.3
	c0-9.3,4.6-16.3,11.8-16.3c5.9,0,11.9,4.9,11.9,14.9L188.4,58.8L188.4,58.8z M25.9,56c26.7,0,33-22.3,33-26.2h-2.3
	c-26.7,0-33,22.3-33,26.2H25.9z M23.6,58.1c0,4.1,4.6,26.9,33.4,26.9h2.3c0-4.1-4.6-26.9-33.4-26.9H23.6L23.6,58.1z M83.9,14.7
	c0-5.2-3.8-9.7-10-9.7s-10,4.5-10,9.7s3.8,9.7,10,9.7S83.9,19.9,83.9,14.7"/>
</svg>
