<svg width="130" height="34" viewBox="0 0 130 34" fill="none" xmlns="http://www.w3.org/2000/svg">
<path fill-rule="evenodd" clip-rule="evenodd" d="M101.347 20.4693C101.822 22.9569 103.74 24.7565 106.082 24.9795C108.424 25.2026 110.667 24.5459 112.587 22.8112L113.628 26.1938C113.628 26.1938 111.459 28.6224 106.515 28.6224C100.878 28.6224 97.0613 24.269 97.0613 19.1683C97.0613 14.0677 100.983 9.71423 106.082 9.71423C110.801 9.71423 114.833 13.704 114.927 18.3867L114.929 18.3877V20.4693H101.347ZM101.416 17.3469C101.912 15.1036 103.395 13.3571 106.082 13.3571C108.994 13.3571 110.317 15.2578 110.667 17.3469H101.416Z" fill="#191B1F"/>
<path fill-rule="evenodd" clip-rule="evenodd" d="M56.5922 20.4693C57.0674 22.9569 58.9847 24.7565 61.3266 24.9795C63.6684 25.2026 65.912 24.5459 67.8317 22.8112L68.8725 26.1938C68.8725 26.1938 66.7041 28.6224 61.7602 28.6224C56.1225 28.6224 52.3062 24.269 52.3062 19.1683C52.3062 14.0677 56.2276 9.71423 61.3266 9.71423C66.0463 9.71423 70.0777 13.704 70.1718 18.3867L70.1735 18.3877V20.4693H56.5922ZM56.6604 17.3469C57.1569 15.1036 58.6399 13.3571 61.3266 13.3571C64.2391 13.3571 65.5623 15.2578 65.912 17.3469H56.6604Z" fill="#191B1F"/>
<path d="M43.1123 4.68359L43.1123 22.2436C43.1123 24.0312 43.6563 25.6328 44.7224 26.8133C45.7947 28.0007 47.2752 28.6224 48.8368 28.6224C49.7555 28.6224 50.7032 28.4614 51.5761 28.1687C51.5808 28.1672 50.2562 24.2202 50.2607 24.2188C49.8019 24.3575 49.3173 24.4591 48.8368 24.4591C48.4035 24.4591 48.0626 24.3002 47.8122 24.023C47.5555 23.7387 47.2756 23.1917 47.2756 22.2436V4.68359H43.1123Z" fill="#191B1F"/>
<path d="M122.214 28.2754H118.051V10.2346H122.214V11.7091C123.515 10.2232 125.857 9.19378 129.413 10.5815L128.112 14.0509C126.464 13.5499 124.868 13.8316 123.741 14.7646C122.18 16.0604 122.214 17.6938 122.214 17.6938V28.2754Z" fill="#191B1F"/>
<path d="M75.3776 22.2436V14.398H71.5613V10.5816H73.4694C74.4292 10.5816 74.7921 10.2393 74.9873 9.9616C75.2572 9.57743 75.3776 9.02575 75.3776 8.58675V5.37756H79.5409V10.5816H85.2654C86.2252 10.5816 86.5881 10.2393 86.7832 9.9616C87.0531 9.57743 87.1735 9.02575 87.1735 8.58675V5.37756H91.3368V10.5816H95.5001V14.398H91.3368V22.2436C91.3368 23.1918 91.6168 23.7388 91.8733 24.0231C92.1238 24.3003 92.4647 24.4592 92.898 24.4592C93.7602 24.4592 94.3501 24.2096 94.3225 24.2188L94.322 24.2189C94.3146 24.2214 95.6458 28.1661 95.6368 28.1692C94.7599 28.4558 93.82 28.6225 92.898 28.6225C91.3364 28.6225 89.8559 28.0007 88.7837 26.8134C87.7175 25.6329 87.1735 24.0312 87.1735 22.2436V14.398H79.5409V22.2436C79.5409 23.1918 79.8209 23.7388 80.0774 24.0231C80.3279 24.3003 80.6688 24.4592 81.1021 24.4592C81.9639 24.4592 82.5261 24.2189 82.5261 24.2189C82.5197 24.221 83.8492 28.1662 83.8408 28.1692C82.9646 28.4568 82.0236 28.6225 81.1021 28.6225C79.5405 28.6225 78.06 28.0007 76.9877 26.8134C75.9216 25.6329 75.3776 24.0312 75.3776 22.2436Z" fill="#191B1F"/>
<path d="M9.94193 21.4784H5.61952C0.821789 21.4784 -1.76275 15.8488 1.37137 12.2097L11.8729 0H28.4199L9.94193 21.4784Z" fill="#191B1F"/>
<path d="M9.94195 21.4784L7.16431 24.7313C4.04505 28.3705 6.62958 34 11.4273 34H19.5077L30.2172 21.4932H9.94195V21.4784Z" fill="#191B1F"/>
</svg>
