<?xml version="1.0" standalone="no"?>
<!DOCTYPE svg PUBLIC "-//W3C//DTD SVG 20010904//EN"
 "http://www.w3.org/TR/2001/REC-SVG-20010904/DTD/svg10.dtd">
<svg version="1.0" xmlns="http://www.w3.org/2000/svg"
 width="512.000000pt" height="512.000000pt" viewBox="0 0 512.000000 512.000000"
 preserveAspectRatio="xMidYMid meet">
<metadata>
Created by potrace 1.11, written by Peter Selinger 2001-2013
</metadata>
<g transform="translate(0.000000,512.000000) scale(0.100000,-0.100000)"
fill="#000000" stroke="none">
<path d="M2076 4995 c-7 -5 -41 -44 -77 -85 -35 -41 -68 -80 -74 -86 -5 -6
-30 -35 -55 -64 -25 -29 -49 -58 -55 -64 -5 -6 -37 -43 -70 -81 -33 -39 -62
-72 -65 -75 -3 -3 -60 -68 -125 -145 -143 -167 -167 -195 -221 -255 -22 -25
-82 -94 -134 -155 -52 -60 -101 -117 -109 -126 -9 -9 -32 -35 -51 -59 -19 -24
-42 -50 -51 -59 -8 -9 -73 -83 -144 -166 -71 -82 -134 -155 -140 -161 -5 -6
-29 -33 -51 -60 -23 -27 -62 -73 -88 -103 -87 -103 -152 -235 -181 -368 -20
-96 -14 -276 13 -372 63 -228 230 -422 444 -520 152 -69 196 -75 629 -75 l336
-1 -116 -135 c-64 -74 -118 -137 -121 -140 -25 -24 -184 -216 -213 -256 -50
-70 -103 -185 -126 -274 -30 -119 -24 -324 13 -425 38 -104 56 -141 102 -211
110 -167 266 -278 472 -336 75 -21 93 -22 726 -23 l649 -1 146 171 c80 93 148
172 151 175 3 3 32 37 64 75 33 39 65 75 71 80 6 6 20 23 32 38 17 23 83 99
138 161 6 6 50 58 100 116 49 58 102 119 116 135 15 17 86 100 159 185 73 85
144 169 159 185 14 17 93 109 175 205 83 96 161 186 174 200 13 14 32 36 42
50 l18 25 -1459 -1 c-802 0 -1459 3 -1459 7 0 6 297 358 320 379 3 3 32 36 65
75 33 38 72 83 86 100 15 16 73 84 130 150 57 66 116 134 130 150 15 17 114
131 220 255 106 124 195 227 199 230 3 3 45 52 95 110 49 58 102 119 117 135
15 17 190 219 389 450 199 231 375 436 393 455 17 19 69 80 116 135 47 55 92
106 100 115 8 9 35 40 60 69 25 30 54 64 65 76 27 30 59 68 122 140 l51 61
-1195 -1 c-801 0 -1199 -3 -1207 -10z"/>
</g>
</svg>
