<?xml version="1.0" encoding="utf-8"?>
<!-- Generator: Adobe Illustrator 24.2.1, SVG Export Plug-In . SVG Version: 6.00 Build 0)  -->
<svg version="1.0" id="Layer_1" xmlns="http://www.w3.org/2000/svg" xmlns:xlink="http://www.w3.org/1999/xlink" x="0px" y="0px"
	 viewBox="0 0 430.5 150" style="enable-background:new 0 0 430.5 150;" xml:space="preserve">
<style type="text/css">
	.st0{fill:#FFFFFF;}
</style>
<g>
	<path class="st0" d="M75,0C33.6,0,0,33.6,0,75s33.6,75,75,75s75-33.6,75-75S116.4,0,75,0z M123.6,57.2l-22.5,47.2
		c-0.7,1.4-2.1,2.5-3.6,2.5h-45c-1.5,0-2.9-1.1-3.6-2.5l-22.5-47c-0.6-1.2-0.5-2.5,0.2-3.7s2-1.7,3.4-1.7h90c1.4,0,2.7,0.5,3.4,1.6
		S124.2,56,123.6,57.2z"/>
	<path class="st0" d="M97.5,93.7L113.7,60H81.4L97.5,93.7z M75,65.3L58.9,99h32.3L75,65.3z M68.7,60H36.4l16.1,33.7L68.7,60z
		 M252.1,52h-5.3c-0.8,0-1.5,0.3-1.8,1l-13.5,39.4L218,53.1c-0.3-0.8-1-1.2-1.8-1.2h-3.9c-0.8,0-1.5,0.3-1.8,1.1L197,92.3
		l-13.5-39.4c-0.3-0.8-1-1.1-1.8-1.1h-5.4c-0.6,0-1.2,0-1.5,0.5c-0.4,0.5-0.4,1-0.2,1.6l18.5,51.5c0.3,0.7,1,1.4,1.8,1.4h4.2
		c0.8,0,1.5-0.8,1.8-1.5L214.3,67l13.3,38.4c0.3,0.7,1,1.4,1.8,1.4h4.2c0.8,0,1.5-0.7,1.8-1.5l18.5-51.4c0.2-0.6,0.1-1-0.2-1.5
		C253.3,52.1,252.7,52,252.1,52z M286,51.5c-7.9,0-13.7,2.3-18.5,4.5c-0.9,0.4-1.2,1.5-0.8,2.4l1.8,4.3c0.2,0.5,0.6,0.9,1.1,1
		c0.5,0.2,1,0.1,1.5-0.1c5.2-2.6,9.9-3.9,15-3.9c6.7,0,14.7,1.9,14.8,12.9c-3.9-0.9-8.8-1.7-15.2-1.7c-14.6,0-24.2,6.4-24.2,17.6
		v0.2c0,11.5,11.1,17.7,21.5,17.7c8.3,0,13.5-3.3,17.5-6.6v4.6c0,1,1.2,2.4,2.3,2.4h4.7c1,0,1-1.3,1-2.4V72.7
		C308.5,59.2,300.4,51.5,286,51.5L286,51.5z M300.5,85.3c0,7.8-7.4,12.9-17.2,12.9c-6.4,0-12.8-3.3-12.8-9.7v-0.2
		c0-6.2,5.5-9.2,14.7-9.2c6.3,0,11.3,0.9,15.3,1.9V85.3L300.5,85.3z M353.1,52h-16.6V37.9c0-1,0.1-1.9-0.9-1.9h-4.9
		c-1,0-2.2,0.9-2.2,1.9V52h-5.1c-1,0-1.9,0.4-1.9,1.5V58c0,1,0.9,2.1,1.9,2.1h5.1v30.8c0,9.7,6.3,15.7,16.2,15.7
		c3.3,0,5.9-0.6,8.8-2c0.7-0.3,0.9-1,0.9-1.7v-4.6c0-0.6-0.1-1.2-0.6-1.6c-0.5-0.3-1.1-0.4-1.7-0.1c-2.6,1.2-4.9,1.6-7.1,1.6
		c-5.6,0-8.7-2.5-8.7-7.9V60h16.6c1,0,1.4-1,1.4-2.1v-4.5C354.5,52.4,354.2,52,353.1,52L353.1,52z M388.4,74.5
		c-7.4-2.1-12.9-3.2-12.9-7.3V67c0-4.1,4.4-6.9,10-6.9c4.7,0,10.1,1.7,14.7,4.7c0.4,0.3,1,0.4,1.5,0.3s1-0.4,1.2-0.8l2.6-4.1
		c0.5-0.9,0.3-2-0.5-2.6c-5.4-3.6-12.8-5.9-19-5.9c-10.7,0-18.6,6.7-18.6,15.8v0.2c0,10.3,10.2,12.4,18.3,14.8v0.1
		c8,2.2,11.6,3.4,11.6,7.6v0.2c0,4.6-3.8,7.7-9.9,7.7c-5.9,0-11.4-2.1-16.8-6.2c-0.4-0.3-0.8-0.4-1.3-0.4c-0.5,0.1-0.9,0.3-1.2,0.7
		l-2.9,3.9c-0.6,0.8-0.4,1.9,0.3,2.6c5.9,4.8,14,7.8,21.6,7.8c11.2,0,19-7,19-16.6v-0.2C406.5,78.8,395.1,76.4,388.4,74.5
		L388.4,74.5z M429.3,52h-4.9c-1,0-1.9,0.4-1.9,1.5v51.2c0,1,0.9,2.4,1.9,2.4h4.9c1,0,1.2-1.3,1.2-2.4V53.5
		C430.5,52.4,430.3,52,429.3,52z M429.5,36h-5.3c-0.9,0-1.7,0.8-1.7,1.7v5.2c0,0.9,0.8,2.1,1.7,2.1h5.3c0.9,0,1-1.2,1-2.1v-5.2
		C430.5,36.8,430.4,36,429.5,36z"/>
</g>
</svg>
